<svg version="1.1" viewBox="0.0 0.0 457.54068241469815 671.9763779527559" fill="none" stroke="none" stroke-linecap="square" stroke-miterlimit="10" xmlns:xlink="http://www.w3.org/1999/xlink" xmlns="http://www.w3.org/2000/svg"><clipPath id="p.0"><path d="m0 0l457.54068 0l0 671.9764l-457.54068 0l0 -671.9764z" clip-rule="nonzero"/></clipPath><g clip-path="url(#p.0)"><path fill="#000000" fill-opacity="0.0" d="m0 0l457.54068 0l0 671.9764l-457.54068 0z" fill-rule="evenodd"/><path fill="#000000" d="m0.52291495 345.42276l457.28238 0l0 327.21042l-457.28238 0z" fill-rule="evenodd"/><path stroke="#000000" stroke-width="1.0" stroke-linejoin="round" stroke-linecap="butt" d="m0.52291495 345.42276l457.28238 0l0 327.21042l-457.28238 0z" fill-rule="evenodd"/><path fill="#000000" d="m0.52291495 345.42596l76.49244 -141.1925l304.29752 0l76.49243 141.1925z" fill-rule="evenodd"/><path stroke="#000000" stroke-width="2.0" stroke-linejoin="round" stroke-linecap="butt" d="m0.52291495 345.42596l76.49244 -141.1925l304.29752 0l76.49243 141.1925z" fill-rule="evenodd"/><path fill="#000000" d="m164.3135 0.24505092l129.7012 0l0 220.98024l-129.7012 0z" fill-rule="evenodd"/><path stroke="#000000" stroke-width="1.0" stroke-linejoin="round" stroke-linecap="butt" d="m164.3135 0.24505092l129.7012 0l0 220.98024l-129.7012 0z" fill-rule="evenodd"/><path fill="#131212" d="m71.52962 586.7017l0 -116.86084l0 0c0 -64.54047 70.57536 -116.86087 157.63449 -116.86087c87.05913 0 157.6345 52.320404 157.6345 116.86087l0 116.86084z" fill-rule="evenodd"/><path stroke="#000000" stroke-width="1.0" stroke-linejoin="round" stroke-linecap="butt" d="m71.52962 586.7017l0 -116.86084l0 0c0 -64.54047 70.57536 -116.86087 157.63449 -116.86087c87.05913 0 157.6345 52.320404 157.6345 116.86087l0 116.86084z" fill-rule="evenodd"/></g></svg>